<?xml version="1.0" encoding="UTF-8" standalone="no"?>
<!-- Created with Inkscape (http://www.inkscape.org/) -->

<svg
   xmlns:dc="http://purl.org/dc/elements/1.1/"
   xmlns:cc="http://creativecommons.org/ns#"
   xmlns:rdf="http://www.w3.org/1999/02/22-rdf-syntax-ns#"
   xmlns:svg="http://www.w3.org/2000/svg"
   xmlns="http://www.w3.org/2000/svg"
   xmlns:sodipodi="http://sodipodi.sourceforge.net/DTD/sodipodi-0.dtd"
   xmlns:inkscape="http://www.inkscape.org/namespaces/inkscape"
   width="1062.9921"
   height="1062.9921"
   id="svg2"
   version="1.1"
   inkscape:version="0.48.2 r9819"
   sodipodi:docname="base2.svg">
  <defs
     id="defs4" />
  <sodipodi:namedview
     id="base"
     pagecolor="#ffffff"
     bordercolor="#666666"
     borderopacity="1.0"
     inkscape:pageopacity="0.0"
     inkscape:pageshadow="2"
     inkscape:zoom="1.4254587"
     inkscape:cx="333.69709"
     inkscape:cy="324.79478"
     inkscape:document-units="mm"
     inkscape:current-layer="g4375"
     showgrid="false"
     units="mm"
     showguides="true"
     inkscape:guide-bbox="true"
     inkscape:window-width="1440"
     inkscape:window-height="791"
     inkscape:window-x="6"
     inkscape:window-y="0"
     inkscape:window-maximized="0">
    <inkscape:grid
       type="xygrid"
       id="grid3014"
       empspacing="5"
       visible="true"
       enabled="true"
       snapvisiblegridlinesonly="true" />
  </sodipodi:namedview>
  <metadata
     id="metadata7">
    <rdf:RDF>
      <cc:Work
         rdf:about="">
        <dc:format>image/svg+xml</dc:format>
        <dc:type
           rdf:resource="http://purl.org/dc/dcmitype/StillImage" />
        <dc:title></dc:title>
      </cc:Work>
    </rdf:RDF>
  </metadata>
  <g
     inkscape:label="Layer 1"
     inkscape:groupmode="layer"
     id="layer1"
     transform="translate(0,10.629915)">
    <g
       id="g3125"
       transform="matrix(1,0,0,1.2514826,-191.38186,-25.097948)" />
    <g
       transform="matrix(1,0,0,0.8829905,-52.301316,278.70219)"
       id="g4309" />
    <g
       transform="matrix(-0.5,-0.8660254,1.0838157,-0.6257413,-246.05466,1642.8989)"
       id="g4351" />
    <g
       id="g4355"
       transform="matrix(-0.5,-0.8660254,0.7646922,-0.44149525,-52.496297,1370.5516)" />
    <g
       id="g4371"
       transform="matrix(-0.5,0.8660254,-1.0838157,-0.6257413,1225.6433,857.0451)" />
    <g
       transform="matrix(-0.5,0.8660254,-0.7646922,-0.44149525,893.00439,825.59232)"
       id="g4375">
      <path
         style="fill:none;stroke:#000000;stroke-width:0.69620848"
         d="m 352.40976,722.96814 0,101.30379 -21.80379,0 0,-101.30379 z"
         id="path4478" />
      <path
         style="fill:none;stroke:#000000;stroke-width:0.69620848"
         d="m 213.3292,680.62102 0,143.58018 -21.80379,0 0,-143.58018 z"
         id="path4476" />
      <path
         style="fill:none;stroke:#000000;stroke-width:0.69620848"
         d="m 215.64595,602.90205 -77.46622,-50.65189 10.90189,-21.38487 77.46622,50.65189 z"
         id="path4474" />
      <path
         style="fill:none;stroke:#000000;stroke-width:0.69620848"
         d="M 317.56868,487.66729 207.77404,415.8772 218.67593,394.49233 328.47057,466.28242 z"
         id="path4472" />
      <path
         style="fill:none;stroke:#000000;stroke-width:0.69620848"
         d="m 375.67533,529.70108 77.46622,-50.6519 10.90189,21.38487 -77.46621,50.65189 z"
         id="path4470" />
      <path
         style="fill:none;stroke:#000000;stroke-width:0.69620848"
         d="M 412.8331,687.28299 522.62774,615.4929 533.52964,636.87777 423.735,708.66785 z"
         id="path4468" />
      <path
         style="fill:none;stroke:#000000;stroke-width:0.69620848"
         d="m 185.87232,839.13637 a 27.766432,31.445902 0 0 0 24.04817,15.70729 l 208.99934,-0.006 a 27.766432,31.445902 0 0 0 24.02872,-15.71137 L 547.43682,634.15596 a 27.766432,31.445902 0 0 0 0.0128,-31.43977 L 442.95473,397.7417 a 27.766432,31.445902 0 0 0 -24.04817,-15.70729 l -208.98319,-0.004 a 27.766432,31.445902 0 0 0 -24.02872,15.71136 L 81.390238,602.72246 a 27.766432,31.445902 0 0 0 -0.01285,31.43977 L 185.87232,839.13637 z"
         id="rect4377" />
      <path
         transform="matrix(-0.454181,-0.89090943,0.83696513,-0.54725622,0,0)"
         style="fill:none;stroke:#000000;stroke-width:1.05184865"
         d="m -803.2583,56.007236 41.82346,0 0,22.217474 -41.82346,0 z"
         id="rect4480" />
      <path
         transform="matrix(-0.454181,0.89090944,-0.83696513,-0.54725622,0,0)"
         style="fill:none;stroke:#000000;stroke-width:1.05184865"
         d="m 238.47629,-507.34396 41.82346,0 0,22.21747 -41.82346,0 z"
         id="rect5401" />
      <path
         style="fill:none;stroke:#000000;stroke-width:1.04880095"
         d="m 215.67107,680.21393 37.99084,0 0,24.3173 -37.99084,0 z"
         id="rect5403" />
    </g>
  </g>
</svg>
