<?xml version="1.0" encoding="UTF-8" standalone="no"?>
<!-- Created with Inkscape (http://www.inkscape.org/) -->

<svg
   xmlns:dc="http://purl.org/dc/elements/1.1/"
   xmlns:cc="http://creativecommons.org/ns#"
   xmlns:rdf="http://www.w3.org/1999/02/22-rdf-syntax-ns#"
   xmlns:svg="http://www.w3.org/2000/svg"
   xmlns="http://www.w3.org/2000/svg"
   xmlns:sodipodi="http://sodipodi.sourceforge.net/DTD/sodipodi-0.dtd"
   xmlns:inkscape="http://www.inkscape.org/namespaces/inkscape"
   width="1062.9921"
   height="1062.9921"
   id="svg2"
   version="1.1"
   inkscape:version="0.48.2 r9819"
   sodipodi:docname="handlebase2.svg">
  <defs
     id="defs4">
    <inkscape:path-effect
       effect="spiro"
       id="path-effect3184"
       is_visible="true" />
  </defs>
  <sodipodi:namedview
     id="base"
     pagecolor="#ffffff"
     bordercolor="#666666"
     borderopacity="1.0"
     inkscape:pageopacity="0.0"
     inkscape:pageshadow="2"
     inkscape:zoom="2"
     inkscape:cx="208.58439"
     inkscape:cy="193.76606"
     inkscape:document-units="mm"
     inkscape:current-layer="layer1"
     showgrid="false"
     units="mm"
     showguides="true"
     inkscape:guide-bbox="true"
     inkscape:window-width="1440"
     inkscape:window-height="798"
     inkscape:window-x="0"
     inkscape:window-y="0"
     inkscape:window-maximized="1"
     fit-margin-top="0"
     fit-margin-left="0"
     fit-margin-right="0"
     fit-margin-bottom="0"
     inkscape:snap-global="true"
     objecttolerance="10000"
     guidetolerance="10000"
     inkscape:snap-page="false"
     inkscape:snap-object-midpoints="true"
     inkscape:snap-center="false"
     inkscape:snap-nodes="false"
     inkscape:snap-to-guides="false"
     inkscape:snap-grids="false"
     inkscape:snap-bbox="false"
     inkscape:object-paths="false"
     showborder="true"
     inkscape:showpageshadow="false"
     inkscape:snap-smooth-nodes="false"
     inkscape:object-nodes="false"
     inkscape:snap-intersection-paths="true"
     inkscape:snap-midpoints="false">
    <inkscape:grid
       type="xygrid"
       id="grid3014"
       empspacing="5"
       visible="true"
       enabled="true"
       snapvisiblegridlinesonly="true" />
    <sodipodi:guide
       orientation="0,1"
       position="215.63627,217.07591"
       id="guide3198" />
    <sodipodi:guide
       orientation="1,0"
       position="215.77596,155.96972"
       id="guide3200" />
  </sodipodi:namedview>
  <metadata
     id="metadata7">
    <rdf:RDF>
      <cc:Work
         rdf:about="">
        <dc:format>image/svg+xml</dc:format>
        <dc:type
           rdf:resource="http://purl.org/dc/dcmitype/StillImage" />
        <dc:title />
      </cc:Work>
    </rdf:RDF>
  </metadata>
  <g
     inkscape:label="Layer 1"
     inkscape:groupmode="layer"
     id="layer1"
     transform="translate(-261.16038,272.97244)">
    <path
       id="path3210"
       transform="matrix(0.30763263,0,0,0.30763263,373.17042,309.6914)"
       style="fill:none;stroke:#000000"
       d="m 357.42187,927.24988 c 0,11.11041 -9.00677,20.11719 -20.11718,20.11719 -11.11042,0 -20.11719,-9.00678 -20.11719,-20.11719 0,-11.11042 9.00677,-20.11719 20.11719,-20.11719 11.11041,0 20.11718,9.00677 20.11718,20.11719 z m 0,-143.02774 c 0,11.11041 -9.00677,20.11719 -20.11718,20.11719 -11.11042,0 -20.11719,-9.00678 -20.11719,-20.11719 0,-11.11042 9.00677,-20.11719 20.11719,-20.11719 11.11041,0 20.11718,9.00677 20.11718,20.11719 z m 15.56552,143.02773 c 0,19.70701 -15.9757,35.68273 -35.68271,35.68273 -19.70703,0 -35.68273,-15.97572 -35.68273,-35.68273 0,-19.70703 15.9757,-35.68273 35.68273,-35.68273 19.70701,0 35.68271,15.9757 35.68271,35.68273 z m 0,-143.02774 c 0,19.70701 -15.9757,35.68273 -35.68271,35.68273 -19.70703,0 -35.68273,-15.97572 -35.68273,-35.68273 0,-19.70703 15.9757,-35.68273 35.68273,-35.68273 19.70701,0 35.68271,15.9757 35.68271,35.68273 z m 0,71.51387 c 0,19.70701 -15.9757,35.68273 -35.68271,35.68273 -19.70703,0 -35.68273,-15.97572 -35.68273,-35.68273 0,-19.70703 15.9757,-35.68273 35.68273,-35.68273 19.70701,0 35.68271,15.9757 35.68271,35.68273 z m 333.82284,-382.26844 -50.28319,28.95093 c -45.17027,67.2087 -102.5138,218.80806 -319.98394,218.80806 -216.00023,0 -274.032371,-149.48935 -319.069693,-217.38591 l -52.11167,-30.06834 c -21.226975,9.43964 -48.492158,43.47332 -89.900247,115.19422 -41.22027,71.39558 -57.12648,111.95763 -54.85439,135.10433 l 52.82274,30.47466 c 81.498706,4.86236 239.40396,-19.03702 347.10639,167.50905 109.14014,189.03624 5.27808,314.73024 -29.96675,387.33294 l 0,56.7844 c 18.00976,14.3818 61.07782,21.3323 145.97362,21.3323 86.38973,0 129.46176,-7.1389 146.88787,-22.0433 l 0,-53.9402 C 449.21607,1239.2558 342.23158,1112.9557 452.4484,922.05456 561.539,733.10409 722.24595,760.16137 802.80541,754.44393 l 49.47053,-28.64618 C 855.57049,702.9659 839.90619,662.20024 797.62472,588.96652 755.5823,516.14687 728.18033,482.27764 706.81023,473.46756 z" />
  </g>
</svg>
