<?xml version="1.0" encoding="UTF-8" standalone="no"?>
<!-- Created with Inkscape (http://www.inkscape.org/) -->

<svg
   xmlns:dc="http://purl.org/dc/elements/1.1/"
   xmlns:cc="http://creativecommons.org/ns#"
   xmlns:rdf="http://www.w3.org/1999/02/22-rdf-syntax-ns#"
   xmlns:svg="http://www.w3.org/2000/svg"
   xmlns="http://www.w3.org/2000/svg"
   xmlns:sodipodi="http://sodipodi.sourceforge.net/DTD/sodipodi-0.dtd"
   xmlns:inkscape="http://www.inkscape.org/namespaces/inkscape"
   width="744.09448"
   height="1052.3622"
   id="svg2"
   version="1.1"
   inkscape:version="0.48.5 r10040"
   sodipodi:docname="spring-clip.svg">
  <defs
     id="defs4" />
  <sodipodi:namedview
     id="base"
     pagecolor="#ffffff"
     bordercolor="#666666"
     borderopacity="1.0"
     inkscape:pageopacity="0.0"
     inkscape:pageshadow="2"
     inkscape:zoom="5.2219526"
     inkscape:cx="77.312926"
     inkscape:cy="65.213415"
     inkscape:document-units="mm"
     inkscape:current-layer="layer1"
     showgrid="true"
     units="mm"
     showborder="false"
     inkscape:showpageshadow="false"
     inkscape:window-width="1717"
     inkscape:window-height="1008"
     inkscape:window-x="0"
     inkscape:window-y="0"
     inkscape:window-maximized="0">
    <inkscape:grid
       type="xygrid"
       id="grid3763"
       empspacing="5"
       visible="true"
       enabled="true"
       snapvisiblegridlinesonly="true" />
  </sodipodi:namedview>
  <metadata
     id="metadata7">
    <rdf:RDF>
      <cc:Work
         rdf:about="">
        <dc:format>image/svg+xml</dc:format>
        <dc:type
           rdf:resource="http://purl.org/dc/dcmitype/StillImage" />
        <dc:title></dc:title>
      </cc:Work>
    </rdf:RDF>
  </metadata>
  <g
     inkscape:label="Layer 1"
     inkscape:groupmode="layer"
     id="layer1"
     transform="translate(0,-2.5390623e-6)">
    <g
       id="g3820">
      <rect
         ry="5.125216"
         rx="5.363493"
         y="1017.8516"
         x="0.2137887"
         height="34.296833"
         width="35.891319"
         id="rect2985"
         style="fill:#000000;fill-opacity:0;fill-rule:nonzero;stroke:#000000;stroke-width:0.42757741;stroke-linecap:butt;stroke-miterlimit:4;stroke-dasharray:none" />
      <path
         sodipodi:type="arc"
         style="fill:#000000;fill-opacity:0;fill-rule:nonzero;stroke:#000000;stroke-width:0.24171191;stroke-linecap:butt;stroke-miterlimit:4;stroke-dasharray:none"
         id="path2989"
         sodipodi:cx="273.75"
         sodipodi:cy="527.00507"
         sodipodi:rx="3.5714285"
         sodipodi:ry="3.5714285"
         d="m 277.32143,527.00507 a 3.5714285,3.5714285 0 1 1 -7.14286,0 3.5714285,3.5714285 0 1 1 7.14286,0 z"
         transform="matrix(1.5234471,0,0,1.5234471,-389.58301,232.13565)" />
      <path
         transform="matrix(2.425566,0,0,2.425566,-636.53806,-243.28558)"
         d="m 277.32143,527.00507 a 3.5714285,3.5714285 0 1 1 -7.14286,0 3.5714285,3.5714285 0 1 1 7.14286,0 z"
         sodipodi:ry="3.5714285"
         sodipodi:rx="3.5714285"
         sodipodi:cy="527.00507"
         sodipodi:cx="273.75"
         id="path2991"
         style="fill:#000000;fill-opacity:0;fill-rule:nonzero;stroke:#000000;stroke-width:0.16122591;stroke-linecap:butt;stroke-miterlimit:4;stroke-dasharray:none"
         sodipodi:type="arc" />
      <g
         transform="translate(-4.8195116e-6,6.0749504e-5)"
         id="g3800">
        <path
           sodipodi:type="arc"
           style="fill:#000000;fill-opacity:0;fill-rule:nonzero;stroke:#000000;stroke-width:0.24171191;stroke-linecap:butt;stroke-miterlimit:4;stroke-dasharray:none"
           id="path2987"
           sodipodi:cx="273.75"
           sodipodi:cy="527.00507"
           sodipodi:rx="3.5714285"
           sodipodi:ry="3.5714285"
           d="m 277.32143,527.00507 c 0,1.97244 -1.59898,3.57142 -3.57143,3.57142 -1.97245,0 -3.57143,-1.59898 -3.57143,-3.57142 0,-1.97245 1.59898,-3.57143 3.57143,-3.57143 1.97245,0 3.57143,1.59898 3.57143,3.57143 z"
           transform="matrix(1.5234471,0,0,1.5234471,-408.18537,232.13558)" />
        <path
           transform="matrix(2.425566,0,0,2.425566,-655.14042,-243.28565)"
           d="m 277.32143,527.00507 c 0,1.97244 -1.59898,3.57142 -3.57143,3.57142 -1.97245,0 -3.57143,-1.59898 -3.57143,-3.57142 0,-1.97245 1.59898,-3.57143 3.57143,-3.57143 1.97245,0 3.57143,1.59898 3.57143,3.57143 z"
           sodipodi:ry="3.5714285"
           sodipodi:rx="3.5714285"
           sodipodi:cy="527.00507"
           sodipodi:cx="273.75"
           id="path2993"
           style="fill:#000000;fill-opacity:0;fill-rule:nonzero;stroke:#000000;stroke-width:0.16122591;stroke-linecap:butt;stroke-miterlimit:4;stroke-dasharray:none"
           sodipodi:type="arc" />
      </g>
    </g>
    <g
       id="g3828"
       transform="translate(63.779528,-6.0120321e-5)">
      <rect
         style="fill:#000000;fill-opacity:0;fill-rule:nonzero;stroke:#000000;stroke-width:0.42757741;stroke-linecap:butt;stroke-miterlimit:4;stroke-dasharray:none"
         id="rect3830"
         width="35.891319"
         height="34.296833"
         x="0.2137887"
         y="1017.8516"
         rx="5.363493"
         ry="5.125216" />
      <path
         transform="matrix(1.5234471,0,0,1.5234471,-389.58301,232.13565)"
         d="m 277.32143,527.00507 c 0,1.97244 -1.59898,3.57142 -3.57143,3.57142 -1.97245,0 -3.57143,-1.59898 -3.57143,-3.57142 0,-1.97245 1.59898,-3.57143 3.57143,-3.57143 1.97245,0 3.57143,1.59898 3.57143,3.57143 z"
         sodipodi:ry="3.5714285"
         sodipodi:rx="3.5714285"
         sodipodi:cy="527.00507"
         sodipodi:cx="273.75"
         id="path3832"
         style="fill:#000000;fill-opacity:0;fill-rule:nonzero;stroke:#000000;stroke-width:0.24171191;stroke-linecap:butt;stroke-miterlimit:4;stroke-dasharray:none"
         sodipodi:type="arc" />
      <path
         sodipodi:type="arc"
         style="fill:#000000;fill-opacity:0;fill-rule:nonzero;stroke:#000000;stroke-width:0.16122591;stroke-linecap:butt;stroke-miterlimit:4;stroke-dasharray:none"
         id="path3834"
         sodipodi:cx="273.75"
         sodipodi:cy="527.00507"
         sodipodi:rx="3.5714285"
         sodipodi:ry="3.5714285"
         d="m 277.32143,527.00507 c 0,1.97244 -1.59898,3.57142 -3.57143,3.57142 -1.97245,0 -3.57143,-1.59898 -3.57143,-3.57142 0,-1.97245 1.59898,-3.57143 3.57143,-3.57143 1.97245,0 3.57143,1.59898 3.57143,3.57143 z"
         transform="matrix(2.425566,0,0,2.425566,-636.53806,-243.28558)" />
      <g
         id="g3836"
         transform="translate(-4.8195116e-6,6.0749504e-5)">
        <path
           transform="matrix(1.5234471,0,0,1.5234471,-408.18537,232.13558)"
           d="m 277.32143,527.00507 c 0,1.97244 -1.59898,3.57142 -3.57143,3.57142 -1.97245,0 -3.57143,-1.59898 -3.57143,-3.57142 0,-1.97245 1.59898,-3.57143 3.57143,-3.57143 1.97245,0 3.57143,1.59898 3.57143,3.57143 z"
           sodipodi:ry="3.5714285"
           sodipodi:rx="3.5714285"
           sodipodi:cy="527.00507"
           sodipodi:cx="273.75"
           id="path3838"
           style="fill:#000000;fill-opacity:0;fill-rule:nonzero;stroke:#000000;stroke-width:0.24171191;stroke-linecap:butt;stroke-miterlimit:4;stroke-dasharray:none"
           sodipodi:type="arc" />
        <path
           sodipodi:type="arc"
           style="fill:#000000;fill-opacity:0;fill-rule:nonzero;stroke:#000000;stroke-width:0.16122591;stroke-linecap:butt;stroke-miterlimit:4;stroke-dasharray:none"
           id="path3840"
           sodipodi:cx="273.75"
           sodipodi:cy="527.00507"
           sodipodi:rx="3.5714285"
           sodipodi:ry="3.5714285"
           d="m 277.32143,527.00507 c 0,1.97244 -1.59898,3.57142 -3.57143,3.57142 -1.97245,0 -3.57143,-1.59898 -3.57143,-3.57142 0,-1.97245 1.59898,-3.57143 3.57143,-3.57143 1.97245,0 3.57143,1.59898 3.57143,3.57143 z"
           transform="matrix(2.425566,0,0,2.425566,-655.14042,-243.28565)" />
      </g>
    </g>
    <g
       id="g3842"
       transform="translate(0,-56.300471)">
      <rect
         style="fill:#000000;fill-opacity:0;fill-rule:nonzero;stroke:#000000;stroke-width:0.42757741;stroke-linecap:butt;stroke-miterlimit:4;stroke-dasharray:none"
         id="rect3844"
         width="35.891319"
         height="34.296833"
         x="0.2137887"
         y="1017.8516"
         rx="5.363493"
         ry="5.125216" />
      <path
         transform="matrix(1.5234471,0,0,1.5234471,-389.58301,232.13565)"
         d="m 277.32143,527.00507 c 0,1.97244 -1.59898,3.57142 -3.57143,3.57142 -1.97245,0 -3.57143,-1.59898 -3.57143,-3.57142 0,-1.97245 1.59898,-3.57143 3.57143,-3.57143 1.97245,0 3.57143,1.59898 3.57143,3.57143 z"
         sodipodi:ry="3.5714285"
         sodipodi:rx="3.5714285"
         sodipodi:cy="527.00507"
         sodipodi:cx="273.75"
         id="path3846"
         style="fill:#000000;fill-opacity:0;fill-rule:nonzero;stroke:#000000;stroke-width:0.24171191;stroke-linecap:butt;stroke-miterlimit:4;stroke-dasharray:none"
         sodipodi:type="arc" />
      <path
         sodipodi:type="arc"
         style="fill:#000000;fill-opacity:0;fill-rule:nonzero;stroke:#000000;stroke-width:0.16122591;stroke-linecap:butt;stroke-miterlimit:4;stroke-dasharray:none"
         id="path3848"
         sodipodi:cx="273.75"
         sodipodi:cy="527.00507"
         sodipodi:rx="3.5714285"
         sodipodi:ry="3.5714285"
         d="m 277.32143,527.00507 c 0,1.97244 -1.59898,3.57142 -3.57143,3.57142 -1.97245,0 -3.57143,-1.59898 -3.57143,-3.57142 0,-1.97245 1.59898,-3.57143 3.57143,-3.57143 1.97245,0 3.57143,1.59898 3.57143,3.57143 z"
         transform="matrix(2.425566,0,0,2.425566,-636.53806,-243.28558)" />
      <g
         id="g3850"
         transform="translate(-4.8195116e-6,6.0749504e-5)">
        <path
           transform="matrix(1.5234471,0,0,1.5234471,-408.18537,232.13558)"
           d="m 277.32143,527.00507 c 0,1.97244 -1.59898,3.57142 -3.57143,3.57142 -1.97245,0 -3.57143,-1.59898 -3.57143,-3.57142 0,-1.97245 1.59898,-3.57143 3.57143,-3.57143 1.97245,0 3.57143,1.59898 3.57143,3.57143 z"
           sodipodi:ry="3.5714285"
           sodipodi:rx="3.5714285"
           sodipodi:cy="527.00507"
           sodipodi:cx="273.75"
           id="path3852"
           style="fill:#000000;fill-opacity:0;fill-rule:nonzero;stroke:#000000;stroke-width:0.24171191;stroke-linecap:butt;stroke-miterlimit:4;stroke-dasharray:none"
           sodipodi:type="arc" />
        <path
           sodipodi:type="arc"
           style="fill:#000000;fill-opacity:0;fill-rule:nonzero;stroke:#000000;stroke-width:0.16122591;stroke-linecap:butt;stroke-miterlimit:4;stroke-dasharray:none"
           id="path3854"
           sodipodi:cx="273.75"
           sodipodi:cy="527.00507"
           sodipodi:rx="3.5714285"
           sodipodi:ry="3.5714285"
           d="m 277.32143,527.00507 c 0,1.97244 -1.59898,3.57142 -3.57143,3.57142 -1.97245,0 -3.57143,-1.59898 -3.57143,-3.57142 0,-1.97245 1.59898,-3.57143 3.57143,-3.57143 1.97245,0 3.57143,1.59898 3.57143,3.57143 z"
           transform="matrix(2.425566,0,0,2.425566,-655.14042,-243.28565)" />
      </g>
    </g>
    <g
       transform="translate(63.779528,-56.300531)"
       id="g3856">
      <rect
         ry="5.125216"
         rx="5.363493"
         y="1017.8516"
         x="0.2137887"
         height="34.296833"
         width="35.891319"
         id="rect3858"
         style="fill:#000000;fill-opacity:0;fill-rule:nonzero;stroke:#000000;stroke-width:0.42757741;stroke-linecap:butt;stroke-miterlimit:4;stroke-dasharray:none" />
      <path
         sodipodi:type="arc"
         style="fill:#000000;fill-opacity:0;fill-rule:nonzero;stroke:#000000;stroke-width:0.24171191;stroke-linecap:butt;stroke-miterlimit:4;stroke-dasharray:none"
         id="path3860"
         sodipodi:cx="273.75"
         sodipodi:cy="527.00507"
         sodipodi:rx="3.5714285"
         sodipodi:ry="3.5714285"
         d="m 277.32143,527.00507 c 0,1.97244 -1.59898,3.57142 -3.57143,3.57142 -1.97245,0 -3.57143,-1.59898 -3.57143,-3.57142 0,-1.97245 1.59898,-3.57143 3.57143,-3.57143 1.97245,0 3.57143,1.59898 3.57143,3.57143 z"
         transform="matrix(1.5234471,0,0,1.5234471,-389.58301,232.13565)" />
      <path
         transform="matrix(2.425566,0,0,2.425566,-636.53806,-243.28558)"
         d="m 277.32143,527.00507 c 0,1.97244 -1.59898,3.57142 -3.57143,3.57142 -1.97245,0 -3.57143,-1.59898 -3.57143,-3.57142 0,-1.97245 1.59898,-3.57143 3.57143,-3.57143 1.97245,0 3.57143,1.59898 3.57143,3.57143 z"
         sodipodi:ry="3.5714285"
         sodipodi:rx="3.5714285"
         sodipodi:cy="527.00507"
         sodipodi:cx="273.75"
         id="path3862"
         style="fill:#000000;fill-opacity:0;fill-rule:nonzero;stroke:#000000;stroke-width:0.16122591;stroke-linecap:butt;stroke-miterlimit:4;stroke-dasharray:none"
         sodipodi:type="arc" />
      <g
         transform="translate(-4.8195116e-6,6.0749504e-5)"
         id="g3864">
        <path
           sodipodi:type="arc"
           style="fill:#000000;fill-opacity:0;fill-rule:nonzero;stroke:#000000;stroke-width:0.24171191;stroke-linecap:butt;stroke-miterlimit:4;stroke-dasharray:none"
           id="path3866"
           sodipodi:cx="273.75"
           sodipodi:cy="527.00507"
           sodipodi:rx="3.5714285"
           sodipodi:ry="3.5714285"
           d="m 277.32143,527.00507 c 0,1.97244 -1.59898,3.57142 -3.57143,3.57142 -1.97245,0 -3.57143,-1.59898 -3.57143,-3.57142 0,-1.97245 1.59898,-3.57143 3.57143,-3.57143 1.97245,0 3.57143,1.59898 3.57143,3.57143 z"
           transform="matrix(1.5234471,0,0,1.5234471,-408.18537,232.13558)" />
        <path
           transform="matrix(2.425566,0,0,2.425566,-655.14042,-243.28565)"
           d="m 277.32143,527.00507 c 0,1.97244 -1.59898,3.57142 -3.57143,3.57142 -1.97245,0 -3.57143,-1.59898 -3.57143,-3.57142 0,-1.97245 1.59898,-3.57143 3.57143,-3.57143 1.97245,0 3.57143,1.59898 3.57143,3.57143 z"
           sodipodi:ry="3.5714285"
           sodipodi:rx="3.5714285"
           sodipodi:cy="527.00507"
           sodipodi:cx="273.75"
           id="path3868"
           style="fill:#000000;fill-opacity:0;fill-rule:nonzero;stroke:#000000;stroke-width:0.16122591;stroke-linecap:butt;stroke-miterlimit:4;stroke-dasharray:none"
           sodipodi:type="arc" />
      </g>
    </g>
    <g
       transform="translate(0,-113.97501)"
       id="g3870">
      <rect
         ry="5.125216"
         rx="5.363493"
         y="1017.8516"
         x="0.2137887"
         height="34.296833"
         width="35.891319"
         id="rect3872"
         style="fill:#000000;fill-opacity:0;fill-rule:nonzero;stroke:#000000;stroke-width:0.42757741;stroke-linecap:butt;stroke-miterlimit:4;stroke-dasharray:none" />
      <path
         sodipodi:type="arc"
         style="fill:#000000;fill-opacity:0;fill-rule:nonzero;stroke:#000000;stroke-width:0.24171191;stroke-linecap:butt;stroke-miterlimit:4;stroke-dasharray:none"
         id="path3874"
         sodipodi:cx="273.75"
         sodipodi:cy="527.00507"
         sodipodi:rx="3.5714285"
         sodipodi:ry="3.5714285"
         d="m 277.32143,527.00507 c 0,1.97244 -1.59898,3.57142 -3.57143,3.57142 -1.97245,0 -3.57143,-1.59898 -3.57143,-3.57142 0,-1.97245 1.59898,-3.57143 3.57143,-3.57143 1.97245,0 3.57143,1.59898 3.57143,3.57143 z"
         transform="matrix(1.5234471,0,0,1.5234471,-389.58301,232.13565)" />
      <path
         transform="matrix(2.425566,0,0,2.425566,-636.53806,-243.28558)"
         d="m 277.32143,527.00507 c 0,1.97244 -1.59898,3.57142 -3.57143,3.57142 -1.97245,0 -3.57143,-1.59898 -3.57143,-3.57142 0,-1.97245 1.59898,-3.57143 3.57143,-3.57143 1.97245,0 3.57143,1.59898 3.57143,3.57143 z"
         sodipodi:ry="3.5714285"
         sodipodi:rx="3.5714285"
         sodipodi:cy="527.00507"
         sodipodi:cx="273.75"
         id="path3876"
         style="fill:#000000;fill-opacity:0;fill-rule:nonzero;stroke:#000000;stroke-width:0.16122591;stroke-linecap:butt;stroke-miterlimit:4;stroke-dasharray:none"
         sodipodi:type="arc" />
      <g
         transform="translate(-4.8195116e-6,6.0749504e-5)"
         id="g3878">
        <path
           sodipodi:type="arc"
           style="fill:#000000;fill-opacity:0;fill-rule:nonzero;stroke:#000000;stroke-width:0.24171191;stroke-linecap:butt;stroke-miterlimit:4;stroke-dasharray:none"
           id="path3880"
           sodipodi:cx="273.75"
           sodipodi:cy="527.00507"
           sodipodi:rx="3.5714285"
           sodipodi:ry="3.5714285"
           d="m 277.32143,527.00507 c 0,1.97244 -1.59898,3.57142 -3.57143,3.57142 -1.97245,0 -3.57143,-1.59898 -3.57143,-3.57142 0,-1.97245 1.59898,-3.57143 3.57143,-3.57143 1.97245,0 3.57143,1.59898 3.57143,3.57143 z"
           transform="matrix(1.5234471,0,0,1.5234471,-408.18537,232.13558)" />
        <path
           transform="matrix(2.425566,0,0,2.425566,-655.14042,-243.28565)"
           d="m 277.32143,527.00507 c 0,1.97244 -1.59898,3.57142 -3.57143,3.57142 -1.97245,0 -3.57143,-1.59898 -3.57143,-3.57142 0,-1.97245 1.59898,-3.57143 3.57143,-3.57143 1.97245,0 3.57143,1.59898 3.57143,3.57143 z"
           sodipodi:ry="3.5714285"
           sodipodi:rx="3.5714285"
           sodipodi:cy="527.00507"
           sodipodi:cx="273.75"
           id="path3882"
           style="fill:#000000;fill-opacity:0;fill-rule:nonzero;stroke:#000000;stroke-width:0.16122591;stroke-linecap:butt;stroke-miterlimit:4;stroke-dasharray:none"
           sodipodi:type="arc" />
      </g>
    </g>
    <g
       id="g3884"
       transform="translate(63.779528,-113.97507)">
      <rect
         style="fill:#000000;fill-opacity:0;fill-rule:nonzero;stroke:#000000;stroke-width:0.42757741;stroke-linecap:butt;stroke-miterlimit:4;stroke-dasharray:none"
         id="rect3886"
         width="35.891319"
         height="34.296833"
         x="0.2137887"
         y="1017.8516"
         rx="5.363493"
         ry="5.125216" />
      <path
         transform="matrix(1.5234471,0,0,1.5234471,-389.58301,232.13565)"
         d="m 277.32143,527.00507 c 0,1.97244 -1.59898,3.57142 -3.57143,3.57142 -1.97245,0 -3.57143,-1.59898 -3.57143,-3.57142 0,-1.97245 1.59898,-3.57143 3.57143,-3.57143 1.97245,0 3.57143,1.59898 3.57143,3.57143 z"
         sodipodi:ry="3.5714285"
         sodipodi:rx="3.5714285"
         sodipodi:cy="527.00507"
         sodipodi:cx="273.75"
         id="path3888"
         style="fill:#000000;fill-opacity:0;fill-rule:nonzero;stroke:#000000;stroke-width:0.24171191;stroke-linecap:butt;stroke-miterlimit:4;stroke-dasharray:none"
         sodipodi:type="arc" />
      <path
         sodipodi:type="arc"
         style="fill:#000000;fill-opacity:0;fill-rule:nonzero;stroke:#000000;stroke-width:0.16122591;stroke-linecap:butt;stroke-miterlimit:4;stroke-dasharray:none"
         id="path3890"
         sodipodi:cx="273.75"
         sodipodi:cy="527.00507"
         sodipodi:rx="3.5714285"
         sodipodi:ry="3.5714285"
         d="m 277.32143,527.00507 c 0,1.97244 -1.59898,3.57142 -3.57143,3.57142 -1.97245,0 -3.57143,-1.59898 -3.57143,-3.57142 0,-1.97245 1.59898,-3.57143 3.57143,-3.57143 1.97245,0 3.57143,1.59898 3.57143,3.57143 z"
         transform="matrix(2.425566,0,0,2.425566,-636.53806,-243.28558)" />
      <g
         id="g3892"
         transform="translate(-4.8195116e-6,6.0749504e-5)">
        <path
           transform="matrix(1.5234471,0,0,1.5234471,-408.18537,232.13558)"
           d="m 277.32143,527.00507 c 0,1.97244 -1.59898,3.57142 -3.57143,3.57142 -1.97245,0 -3.57143,-1.59898 -3.57143,-3.57142 0,-1.97245 1.59898,-3.57143 3.57143,-3.57143 1.97245,0 3.57143,1.59898 3.57143,3.57143 z"
           sodipodi:ry="3.5714285"
           sodipodi:rx="3.5714285"
           sodipodi:cy="527.00507"
           sodipodi:cx="273.75"
           id="path3894"
           style="fill:#000000;fill-opacity:0;fill-rule:nonzero;stroke:#000000;stroke-width:0.24171191;stroke-linecap:butt;stroke-miterlimit:4;stroke-dasharray:none"
           sodipodi:type="arc" />
        <path
           sodipodi:type="arc"
           style="fill:#000000;fill-opacity:0;fill-rule:nonzero;stroke:#000000;stroke-width:0.16122591;stroke-linecap:butt;stroke-miterlimit:4;stroke-dasharray:none"
           id="path3896"
           sodipodi:cx="273.75"
           sodipodi:cy="527.00507"
           sodipodi:rx="3.5714285"
           sodipodi:ry="3.5714285"
           d="m 277.32143,527.00507 c 0,1.97244 -1.59898,3.57142 -3.57143,3.57142 -1.97245,0 -3.57143,-1.59898 -3.57143,-3.57142 0,-1.97245 1.59898,-3.57143 3.57143,-3.57143 1.97245,0 3.57143,1.59898 3.57143,3.57143 z"
           transform="matrix(2.425566,0,0,2.425566,-655.14042,-243.28565)" />
      </g>
    </g>
  </g>
</svg>
