<?xml version="1.0" encoding="UTF-8" standalone="no"?>
<!-- Created with Inkscape (http://www.inkscape.org/) -->

<svg
   xmlns:dc="http://purl.org/dc/elements/1.1/"
   xmlns:cc="http://creativecommons.org/ns#"
   xmlns:rdf="http://www.w3.org/1999/02/22-rdf-syntax-ns#"
   xmlns:svg="http://www.w3.org/2000/svg"
   xmlns="http://www.w3.org/2000/svg"
   xmlns:sodipodi="http://sodipodi.sourceforge.net/DTD/sodipodi-0.dtd"
   xmlns:inkscape="http://www.inkscape.org/namespaces/inkscape"
   width="1062.9921"
   height="1062.9921"
   id="svg2"
   version="1.1"
   inkscape:version="0.48.2 r9819"
   sodipodi:docname="uprights.svg">
  <defs
     id="defs4" />
  <sodipodi:namedview
     id="base"
     pagecolor="#ffffff"
     bordercolor="#666666"
     borderopacity="1.0"
     inkscape:pageopacity="0.0"
     inkscape:pageshadow="2"
     inkscape:zoom="5"
     inkscape:cx="94.457326"
     inkscape:cy="49.819099"
     inkscape:document-units="mm"
     inkscape:current-layer="g4305"
     showgrid="true"
     units="mm"
     showguides="true"
     inkscape:guide-bbox="true"
     inkscape:window-width="1440"
     inkscape:window-height="794"
     inkscape:window-x="0"
     inkscape:window-y="0"
     inkscape:window-maximized="1"
     showborder="false"
     inkscape:showpageshadow="false"
     inkscape:snap-object-midpoints="true"
     inkscape:snap-nodes="true"
     inkscape:snap-grids="true"
     inkscape:snap-to-guides="false"
     inkscape:snap-global="true">
    <inkscape:grid
       type="xygrid"
       id="grid5451"
       empspacing="5"
       visible="true"
       enabled="true"
       snapvisiblegridlinesonly="true"
       units="mm"
       dotted="false" />
    <sodipodi:guide
       orientation="1,0"
       position="126,-1"
       id="guide5963" />
    <sodipodi:guide
       orientation="1,0"
       position="98,24"
       id="guide5967" />
    <sodipodi:guide
       orientation="0,1"
       position="137,0"
       id="guide5969" />
    <sodipodi:guide
       orientation="1,0"
       position="81,48.764447"
       id="guide5973" />
  </sodipodi:namedview>
  <metadata
     id="metadata7">
    <rdf:RDF>
      <cc:Work
         rdf:about="">
        <dc:format>image/svg+xml</dc:format>
        <dc:type
           rdf:resource="http://purl.org/dc/dcmitype/StillImage" />
        <dc:title></dc:title>
      </cc:Work>
    </rdf:RDF>
  </metadata>
  <g
     inkscape:label="Layer 1"
     inkscape:groupmode="layer"
     id="layer1"
     transform="translate(0,10.629915)">
    <path
       sodipodi:type="arc"
       style="fill:none;stroke:#000000"
       id="path2996"
       sodipodi:cx="797.5"
       sodipodi:cy="561.49207"
       sodipodi:rx="14.5"
       sodipodi:ry="14.5"
       d="m 812,561.49207 c 0,8.00812 -6.49187,14.5 -14.5,14.5 -8.00813,0 -14.5,-6.49188 -14.5,-14.5 0,-8.00813 6.49187,-14.5 14.5,-14.5 8.00813,0 14.5,6.49187 14.5,14.5 z"
       transform="matrix(1.125,0,0,1.125,-91.812492,-158.69142)" />
    <path
       id="path3012"
       d="m 802.18226,430.16962 37.72552,0 c 0.468,0 7.47858,0.11228 7.47858,9.91836 l 0,79.47455 -123.46715,0 c 0,-41.62598 53.06289,-89.39291 78.26305,-89.39291 z"
       style="fill:none;stroke:#000000;stroke-width:0.54859895"
       inkscape:connector-curvature="0"
       sodipodi:nodetypes="cssccc" />
    <g
       id="g5446"
       transform="matrix(0.99886763,0,0,1,-675.1999,342.17688)">
      <g
         transform="translate(-44.542795,-123.65502)"
         id="g4305">
        <path
           transform="matrix(1.125,0,0,1.125,-95.587536,153.39727)"
           d="m 812,561.49207 a 14.5,14.5 0 1 1 -29,0 14.5,14.5 0 1 1 29,0 z"
           sodipodi:ry="14.5"
           sodipodi:rx="14.5"
           sodipodi:cy="561.49207"
           sodipodi:cx="797.5"
           id="path3115"
           style="fill:none;stroke:#000000;stroke-width:0.47270866;stroke-miterlimit:4;stroke-dasharray:none"
           sodipodi:type="arc" />
        <path
           sodipodi:nodetypes="czccccc"
           inkscape:connector-curvature="0"
           style="fill:none;stroke:#000000;stroke-width:0.53179723;stroke-miterlimit:4;stroke-dasharray:none"
           d="m 828.63057,737.84029 c 13.01474,0 21.99395,3.15481 19.02154,18 -2.9724,14.8452 -4.00453,43 -1.00113,78 l 0,7 -126.14284,0 0,-7 c 13.44526,-64.94536 50.50267,-96 108.12243,-96 z"
           id="path3117" />
        <path
           sodipodi:type="arc"
           style="fill:none;stroke:#000000;stroke-width:0.26610261;stroke-miterlimit:4;stroke-dasharray:none"
           id="path5971"
           sodipodi:cx="59"
           sodipodi:cy="1045.9921"
           sodipodi:rx="4"
           sodipodi:ry="4"
           d="m 63,1045.9921 a 4,4 0 1 1 -8,0 4,4 0 1 1 8,0 z"
           transform="matrix(1.9995992,0,0,1.9973349,683.62361,-1265.0286)" />
        <path
           sodipodi:type="arc"
           style="fill:none;stroke:#000000;stroke-width:0.53149605;stroke-miterlimit:4;stroke-dasharray:none"
           id="path5975"
           sodipodi:cx="-128.08511"
           sodipodi:cy="970.22614"
           sodipodi:rx="32.340427"
           sodipodi:ry="32.340427"
           d="m -95.744686,970.22614 a 32.340427,32.340427 0 1 1 -64.680854,0 32.340427,32.340427 0 1 1 64.680854,0 z"
           transform="matrix(1.2946368,0,0,1.2931708,967.42367,-469.59226)" />
      </g>
      <rect
         style="fill:none;stroke:#000000;stroke-width:0.03950756;stroke-miterlimit:4;stroke-dasharray:none"
         id="rect5453"
         width="5.0056434"
         height="7.0000124"
         x="660.94836"
         y="708.18524" />
    </g>
    <path
       sodipodi:type="arc"
       style="fill:none;stroke:#000000"
       id="path3121"
       sodipodi:cx="797.5"
       sodipodi:cy="561.49207"
       sodipodi:rx="14.5"
       sodipodi:ry="14.5"
       d="m 812,561.49207 a 14.5,14.5 0 1 1 -29,0 14.5,14.5 0 1 1 29,0 z"
       transform="matrix(1.125,0,0,1.125,-2.7170374,-40.141929)" />
    <path
       id="path3123"
       d="m 891.30954,548.70337 27.26585,0 c 0.33825,0 7.19867,0.43164 5.40509,9.92185 -4.07561,21.5649 -6.11524,45.59556 0,79.50254 l -89.23501,0 c 0,-41.64064 38.35083,-89.42439 56.56407,-89.42439 z"
       style="fill:none;stroke:#000000;stroke-width:0.46646959"
       inkscape:connector-curvature="0"
       sodipodi:nodetypes="cssccc" />
    <g
       id="g5427"
       transform="translate(708,-51)">
      <path
         transform="matrix(0.59668767,0,0,0.59668767,252.23956,615.15317)"
         d="M 96.3125,-26.875 A 46.534282,46.534282 0 0 0 56.03125,-3.59375 L -119.09375,299.75 a 46.534282,46.534282 0 0 0 0,46.5 l 175.125,303.3125 a 46.534282,46.534282 0 0 0 40.28125,23.28125 l 350.25,0 A 46.534282,46.534282 0 0 0 486.84375,649.5625 L 661.96875,346.25 a 46.534282,46.534282 0 0 0 0,-46.5 L 486.84375,-3.59375 A 46.534282,46.534282 0 0 0 446.5625,-26.875 l -350.25,0 z"
         id="path2992"
         style="fill:none;stroke:#000000"
         inkscape:original="M 96.3125 19.65625 L -78.8125 323 L 96.3125 626.3125 L 446.5625 626.3125 L 621.6875 323 L 446.5625 19.65625 L 96.3125 19.65625 z "
         inkscape:radius="46.529629"
         sodipodi:type="inkscape:offset" />
      <g
         id="g4343">
        <g
           id="g3125"
           transform="matrix(1,0,0,1.2514826,-40.061014,-42.068511)">
          <rect
             transform="matrix(0,1,-1,0,0,0)"
             y="-352.40976"
             x="722.96814"
             height="21.803791"
             width="101.30379"
             id="rect3016"
             style="fill:none;stroke:#000000;stroke-width:0.69620848" />
        </g>
        <g
           transform="matrix(1,0,0,0.8829905,99.019534,261.73163)"
           id="g4309">
          <rect
             style="fill:none;stroke:#000000;stroke-width:0.69620848"
             id="rect4311"
             width="101.30379"
             height="21.803791"
             x="722.96814"
             y="-352.40976"
             transform="matrix(0,1,-1,0,0,0)" />
        </g>
      </g>
      <g
         transform="matrix(-0.5,-0.8660254,0.8660254,-0.5,-78.331915,1570.2002)"
         id="g4349">
        <g
           transform="matrix(1,0,0,1.2514826,-40.061014,-42.068511)"
           id="g4351">
          <rect
             style="fill:none;stroke:#000000;stroke-width:0.69620848"
             id="rect4353"
             width="101.30379"
             height="21.803791"
             x="722.96814"
             y="-352.40976"
             transform="matrix(0,1,-1,0,0,0)" />
        </g>
        <g
           id="g4355"
           transform="matrix(1,0,0,0.8829905,99.019534,261.73163)">
          <rect
             transform="matrix(0,1,-1,0,0,0)"
             y="-352.40976"
             x="722.96814"
             height="21.803791"
             width="101.30379"
             id="rect4357"
             style="fill:none;stroke:#000000;stroke-width:0.69620848" />
        </g>
      </g>
      <g
         id="g4369"
         transform="matrix(-0.5,0.8660254,-0.8660254,-0.5,1320.5013,853.73414)">
        <g
           id="g4371"
           transform="matrix(1,0,0,1.2514826,-40.061014,-42.068511)">
          <rect
             transform="matrix(0,1,-1,0,0,0)"
             y="-352.40976"
             x="722.96814"
             height="21.803791"
             width="101.30379"
             id="rect4373"
             style="fill:none;stroke:#000000;stroke-width:0.69620848" />
        </g>
        <g
           transform="matrix(1,0,0,0.8829905,99.019534,261.73163)"
           id="g4375">
          <rect
             style="fill:none;stroke:#000000;stroke-width:0.69620848"
             id="rect4377"
             width="101.30379"
             height="21.803791"
             x="722.96814"
             y="-352.40976"
             transform="matrix(0,1,-1,0,0,0)" />
        </g>
      </g>
      <rect
         style="fill:none;stroke:#000000;stroke-width:1.07990777"
         id="rect4381"
         width="25.920092"
         height="25.920092"
         x="429.13107"
         y="990.19867" />
    </g>
  </g>
</svg>
